Title:
Bonsai

Country:
Chile/2011

Language:
Spanish

Subtitle:
French

Director:
Cristián Jiménez

Writers:
Cristián Jiménez, Alejandro Zambra (novel)

Stars:
Diego Noguera, Nathalia Galgani, Gabriela Arancibia

Synopsis:
A young writer recounts an earlier romance in hopes of attracting his new love interest. 

Trivia:
Official Selection Cannes Film Festival 2011
Official Selection San Sebastián International Film Festival 2011

Imdb: 
http://www.imdb.com/title/tt1913002

Trailer: 
http://www.bandes-annonces.fr/film/bande-annonce-bonsai.html


Media Info:

General
Complete name                            : Bonsai.2011.DVDRip.XviD.AC3.HORiZON-ArtSubs.avi
Format                                   : AVI
Format/Info                              : Audio Video Interleave
File size                                : 725 MiB
Duration                                 : 1h 31mn
Overall bit rate                         : 1 103 Kbps
Writing application                      : FairUse Wizard - http://fairusewizard.com
Writing library                          : The best and REALLY easy backup tool

Video
ID                                       : 0
Format                                   : MPEG-4 Visual
Format profile                           : Advanced Simple@L5
Format settings, BVOP                    : 1
Format settings, QPel                    : No
Format settings, GMC                     : No warppoints
Format settings, Matrix                  : Default (MPEG)
Muxing mode                              : Packed bitstream
Codec ID                                 : XVID
Codec ID/Hint                            : XviD
Duration                                 : 1h 31mn
Bit rate                                 : 902 Kbps
Width                                    : 704 pixels
Height                                   : 384 pixels
Display aspect ratio                     : 1.85:1
Frame rate                               : 25.000 fps
Color space                              : YUV
Chroma subsampling                       : 4:2:0
Bit depth                                : 8 bits
Scan type                                : Progressive
Compression mode                         : Lossy
Bits/(Pixel*Frame)                       : 0.133
Stream size                              : 592 MiB (82%)
Writing library                          : XviD 1.2.0.dev47 (UTC 2006-11-01)

Audio
ID                                       : 1
Format                                   : AC-3
Format/Info                              : Audio Coding 3
Mode extension                           : CM (complete main)
Format settings, Endianness              : Big
Codec ID                                 : 2000
Duration                                 : 1h 31mn
Bit rate mode                            : Constant
Bit rate                                 : 192 Kbps
Channel(s)                               : 2 channels
Channel positions                        : Front: L R
Sampling rate                            : 48.0 KHz
Bit depth                                : 16 bits
Compression mode                         : Lossy
Stream size                              : 126 MiB (17%)
Alignment                                : Split accross interleaves
Interleave, duration                     : 40 ms (1.00 video frame)
Interleave, preload duration             : 500 ms

